# File created by Blade
# Date/Time:  Thu Sep 25 21:01:51 2014
# Frame Rate: 120.000 fps
#------------------------------------------------------
:FULLY-SPECIFIED
:DEGREES
801
root 0.069637 2.499638 -8.243262 -30.422660 3.741304 0.930723
Spine 38.734472 14.135930 4.001087
Head -19.416202 -16.000956 14.914985
LeftShoulder 1.123296 6.622585 21.843383
LeftArm 41.737867 16.984267 -51.708099
LeftForeArm -27.391204 -0.000000 95.884687
LeftHand -12.592775 -0.000000 -25.623610
LeftHandThumb1 -26.253704 0.000000 33.147579
RightShoulder -9.009623 21.940264 -34.870092
RightArm 14.533102 -21.431389 45.779048
RightForeArm -31.054792 -0.000000 80.032564
RightHand -10.242671 0.000000 37.324696
RightHandThumb1 -24.326973 -0.000000 -32.862282
LeftUpLeg -114.610702 -27.622172 -55.032314
LeftLeg 99.263567 -0.000000 -0.000000
LeftFoot 42.946040 -22.681055 -52.303187
LeftToeBase 1.301421 -0.000000 -0.000000
RightUpLeg -61.700396 -11.956409 3.407129
RightLeg 7.941534 -0.000000 -0.000000
RightFoot 21.122631 -6.390059 11.770924
RightToeBase -2.579638 -0.000000 0.000000
802
root 0.057526 2.507674 -8.244108 -30.313512 3.664097 0.967514
Spine 38.610907 14.141767 3.677369
Head -19.424234 -15.786980 15.061206
LeftShoulder 1.065625 6.630333 21.901704
LeftArm 41.754492 17.016985 -51.620792
LeftForeArm -27.327484 -0.000000 96.152381
LeftHand -12.508618 -0.000000 -25.716205
LeftHandThumb1 -26.253704 0.000000 33.147579
RightShoulder -9.176459 21.792098 -35.021030
RightArm 13.548266 -21.302573 46.583573
RightForeArm -31.534482 0.000000 81.122923
RightHand -10.488342 -0.000000 37.303448
RightHandThumb1 -24.326973 -0.000000 -32.862282
LeftUpLeg -114.440869 -28.100650 -55.583692
LeftLeg 99.691542 -0.000000 -0.000000
LeftFoot 42.172383 -22.602803 -51.994012
LeftToeBase 2.285115 -0.000000 -0.000000
RightUpLeg -61.812651 -11.853066 3.475508
RightLeg 7.967613 -0.000000 -0.000000
RightFoot 21.110134 -6.259248 11.648487
RightToeBase -2.646998 -0.000000 0.000000
803
root 0.040398 2.509912 -8.244816 -30.121126 3.545098 0.992045
Spine 38.360750 14.199013 3.352858
Head -19.386724 -15.621080 15.213211
LeftShoulder 0.994319 6.716123 21.989269
LeftArm 41.810862 17.042883 -51.510274
LeftForeArm -27.323938 0.000000 96.431824
LeftHand -12.658640 -0.000000 -25.664721
LeftHandThumb1 -26.253704 0.000000 33.147579
RightShoulder -9.331340 21.526432 -35.108090
RightArm 12.660525 -21.140102 47.370803
RightForeArm -31.915738 -0.000000 82.144655
RightHand -10.716717 -0.000000 37.374409
RightHandThumb1 -24.326973 -0.000000 -32.862282
LeftUpLeg -114.515532 -28.560823 -55.846914
LeftLeg 100.097718 -0.000000 -0.000000
LeftFoot 42.217506 -22.700387 -51.866287
LeftToeBase 2.256570 -0.000000 -0.000000
RightUpLeg -62.000898 -11.676015 3.553020
RightLeg 7.979411 -0.000000 -0.000000
RightFoot 21.091282 -6.225254 11.603987
RightToeBase -2.630194 -0.000000 0.000000
804
root 0.027790 2.514688 -8.247295 -29.982432 3.453177 0.994513
Spine 38.202850 14.194206 3.096759
Head -19.394713 -15.409273 15.337614
LeftShoulder 0.937925 6.816363 22.007703
LeftArm 41.920280 17.035821 -51.339313
LeftForeArm -27.326274 -0.000000 96.699630
LeftHand -12.626984 0.000000 -25.595569
LeftHandThumb1 -26.253704 0.000000 33.147579
RightShoulder -9.511295 21.362200 -35.264894
RightArm 11.737518 -21.024589 48.216155
RightForeArm -32.039840 -0.000000 83.083714
RightHand -10.966809 -0.000000 37.686663
RightHandThumb1 -24.326973 -0.000000 -32.862282
LeftUpLeg -114.338527 -29.058384 -56.354005
LeftLeg 100.616590 -0.000000 -0.000000
LeftFoot 41.367696 -22.473196 -51.610552
LeftToeBase 3.534030 -0.000000 -0.000000
RightUpLeg -62.134470 -11.568871 3.661200
RightLeg 7.977885 -0.000000 -0.000000
RightFoot 21.078505 -6.170333 11.596376
RightToeBase -2.638145 -0.000000 0.000000
805
root 0.018139 2.518391 -8.251568 -29.837886 3.413605 0.985788
Spine 38.036993 14.126423 2.827959
Head -19.404786 -15.243848 15.434916
LeftShoulder 0.877648 6.868744 22.063192
LeftArm 41.941812 17.053179 -51.259303
LeftForeArm -27.338975 -0.000000 96.955724
LeftHand -12.660195 -0.000000 -25.583211
LeftHandThumb1 -26.253704 0.000000 33.147579
RightShoulder -9.677197 21.150581 -35.388884
RightArm 10.867060 -20.974101 49.001318
RightForeArm -32.174932 -0.000000 83.958799
RightHand -11.127926 -0.000000 37.693229
RightHandThumb1 -24.326973 -0.000000 -32.862282
LeftUpLeg -114.440926 -29.385154 -56.425801
LeftLeg 100.856104 -0.000000 -0.000000
LeftFoot 43.017448 -22.743421 -51.895250
LeftToeBase 1.466455 -0.000000 -0.000000
RightUpLeg -62.275977 -11.500129 3.711621
RightLeg 7.991967 -0.000000 -0.000000
RightFoot 21.052674 -6.048303 11.509508
RightToeBase -2.665608 -0.000000 0.000000
806
root 0.016518 2.521838 -8.262402 -29.722721 3.443924 0.919321
Spine 37.947670 13.930499 2.676755
Head -19.478227 -15.099220 15.366790
LeftShoulder 0.870020 6.841954 22.054911
LeftArm 41.905868 17.064576 -51.205572
LeftForeArm -27.451179 0.000000 97.202116
LeftHand -12.653814 -0.000000 -25.672823
LeftHandThumb1 -26.253704 0.000000 33.147579
RightShoulder -9.799289 21.021639 -35.599965
RightArm 9.841053 -20.884366 49.862087
RightForeArm -32.439562 -0.000000 84.874461
RightHand -11.217297 -0.000000 37.662407
RightHandThumb1 -24.326973 -0.000000 -32.862282
LeftUpLeg -114.274510 -29.783861 -56.713878
LeftLeg 101.128033 -0.000000 -0.000000
LeftFoot 44.070497 -22.697363 -52.080644
LeftToeBase 0.003020 -0.000000 -0.000000
RightUpLeg -62.409448 -11.578155 3.845759
RightLeg 7.994021 -0.000000 -0.000000
RightFoot 21.087892 -5.949691 11.549773
RightToeBase -2.755192 -0.000000 0.000000
807
root 0.006349 2.524901 -8.265716 -29.568665 3.327506 0.957882
Spine 37.772875 13.957605 2.436700
Head -19.473877 -14.954364 15.391723
LeftShoulder 0.886146 6.687221 22.139137
LeftArm 41.668808 17.189606 -51.212810
LeftForeArm -27.414222 -0.000000 97.487783
LeftHand -12.732213 -0.000000 -25.545638
LeftHandThumb1 -26.253704 0.000000 33.147579
RightShoulder -9.946369 20.713638 -35.685134
RightArm 9.054640 -20.794599 50.674830
RightForeArm -32.598247 -0.000000 85.677247
RightHand -11.431859 -0.000000 37.607402
RightHandThumb1 -24.326973 -0.000000 -32.862282
LeftUpLeg -114.290233 -30.149847 -56.955520
LeftLeg 101.626638 -0.000000 -0.000000
LeftFoot 44.316168 -22.685975 -52.105050
LeftToeBase -0.090409 -0.000000 0.000000
RightUpLeg -62.565449 -11.420348 3.906037
RightLeg 8.018116 -0.000000 -0.000000
RightFoot 21.057696 -5.899377 11.524151
RightToeBase -2.714302 -0.000000 0.000000
808
root -0.001424 2.526973 -8.269386 -29.443378 3.214863 0.985208
Spine 37.648050 13.959256 2.226490
Head -19.496249 -14.760898 15.432692
LeftShoulder 0.882676 6.628523 22.219184
LeftArm 41.550403 17.264476 -51.172466
LeftForeArm -27.332721 -0.000000 97.756303
LeftHand -12.737857 0.000000 -25.510944
LeftHandThumb1 -26.253704 0.000000 33.147579
RightShoulder -10.053611 20.490903 -35.793658
RightArm 8.177044 -20.712016 51.531383
RightForeArm -32.512138 0.000000 86.454093
RightHand -11.760029 0.000000 37.773314
RightHandThumb1 -24.326973 -0.000000 -32.862282
LeftUpLeg -114.273377 -30.508043 -57.162443
LeftLeg 102.178132 -0.000000 -0.000000
LeftFoot 44.360488 -22.667857 -52.195558
LeftToeBase 0.058935 -0.000000 -0.000000
RightUpLeg -62.697154 -11.284159 3.985173
RightLeg 8.042317 -0.000000 -0.000000
RightFoot 21.046239 -5.834248 11.485472
RightToeBase -2.816568 -0.000000 0.000000
809
root -0.020376 2.530131 -8.273423 -29.342862 3.007253 1.043002
Spine 37.574195 14.062535 2.014332
Head -19.549846 -14.489732 15.518423
LeftShoulder 0.850998 6.755291 22.311689
LeftArm 41.594517 17.194418 -51.009880
LeftForeArm -27.315459 -0.000000 98.026100
LeftHand -12.780785 -0.000000 -25.361576
LeftHandThumb1 -26.253704 0.000000 33.147579
RightShoulder -10.162795 20.281831 -35.853959
RightArm 7.326694 -20.630284 52.406959
RightForeArm -32.722944 -0.000000 87.194178
RightHand -11.862000 -0.000000 38.029580
RightHandThumb1 -24.326973 -0.000000 -32.862282
LeftUpLeg -114.352546 -30.706448 -57.302930
LeftLeg 102.669789 -0.000000 -0.000000
LeftFoot 44.961854 -22.880822 -52.318726
LeftToeBase -0.424511 -0.000000 0.000000
RightUpLeg -62.790294 -11.033190 4.096183
RightLeg 8.044488 -0.000000 -0.000000
RightFoot 21.053335 -5.820011 11.401922
RightToeBase -2.768477 -0.000000 0.000000
810
root -0.013519 2.526473 -8.279747 -29.149026 3.024165 0.959102
Spine 37.334459 13.808891 1.897946
Head -19.486392 -14.297822 15.347896
LeftShoulder 0.768737 6.953690 22.276034
LeftArm 41.700841 17.178617 -50.887130
LeftForeArm -27.326970 -0.000000 98.205582
LeftHand -12.666912 -0.000000 -25.586910
LeftHandThumb1 -26.253704 0.000000 33.147579
RightShoulder -10.251667 20.063263 -35.980308
RightArm 6.523844 -20.689680 53.210594
RightForeArm -32.883666 0.000000 87.849843
RightHand -12.046478 -0.000000 37.653180
RightHandThumb1 -24.326973 -0.000000 -32.862282
LeftUpLeg -114.147586 -31.139961 -57.581215
LeftLeg 103.103364 -0.000000 -0.000000
LeftFoot 45.183409 -23.159709 -52.126484
LeftToeBase -0.089160 -0.000000 0.000000
RightUpLeg -63.018490 -11.108387 4.234550
RightLeg 8.073589 -0.000000 -0.000000
RightFoot 21.008420 -5.759950 11.451695
RightToeBase -2.694763 -0.000000 0.000000
811
root -0.017459 2.524755 -8.286402 -29.009185 2.953091 0.955122
Spine 37.201257 13.716359 1.734871
Head -19.512428 -14.085926 15.339444
LeftShoulder 0.697574 7.068344 22.328579
LeftArm 41.749844 17.151079 -50.799255
LeftForeArm -27.244861 -0.000000 98.422745
LeftHand -12.719503 -0.000000 -25.591563
LeftHandThumb1 -26.253704 0.000000 33.147579
RightShoulder -10.354230 19.901510 -36.070201
RightArm 5.697573 -20.724443 54.069283
RightForeArm -33.169937 -0.000000 88.529146
RightHand -11.960206 -0.000000 37.325310
RightHandThumb1 -24.326973 -0.000000 -32.862282
LeftUpLeg -114.078709 -31.468845 -57.722878
LeftLeg 103.526641 -0.000000 -0.000000
LeftFoot 45.869174 -23.121959 -52.540375
LeftToeBase -0.827607 -0.000000 0.000000
RightUpLeg -63.163747 -11.036725 4.324506
RightLeg 8.073481 -0.000000 -0.000000
RightFoot 20.993306 -5.711916 11.434912
RightToeBase -2.704234 -0.000000 0.000000
812
root -0.018591 2.525948 -8.291798 -28.903511 2.883295 0.972280
Spine 37.130246 13.660658 1.607678
Head -19.552819 -13.870851 15.285340
LeftShoulder 0.701011 7.027315 22.384085
LeftArm 41.637163 17.162006 -50.759407
LeftForeArm -27.190937 -0.000000 98.686689
LeftHand -12.937106 -0.000000 -25.538448
LeftHandThumb1 -26.253704 0.000000 33.147579
RightShoulder -10.466310 19.645961 -36.144534
RightArm 4.951178 -20.707100 54.872776
RightForeArm -33.423730 -0.000000 89.123897
RightHand -12.543931 -0.000000 37.435919
RightHandThumb1 -24.326973 -0.000000 -32.862282
LeftUpLeg -113.923553 -31.758996 -58.043725
LeftLeg 104.100562 -0.000000 -0.000000
LeftFoot 45.870137 -23.191021 -52.450159
LeftToeBase -0.469964 -0.000000 0.000000
RightUpLeg -63.276557 -10.975229 4.392897
RightLeg 8.087360 -0.000000 -0.000000
RightFoot 20.953569 -5.644606 11.463995
RightToeBase -2.746394 -0.000000 0.000000
